:FULLY-SPECIFIED
:FORCE-ALL-JOINTS-BE-3DOF
:DEGREES
291
root 10.0277 16.829 3.9186 5.40667 1.25992 3.18405
lfemur -3.43627 5.12067 -28.666
ltibia 19.9182 0 0
lfoot -17.6732 4.11718 0
ltoes -5.65223 0 0
rfemur -36.2181 -0.281458 16.1735
rtibia 46.8119 0 0
rfoot -19.8883 -11.4663 0
rtoes -23.6334 0 0
lowerback -5.43706 -3.43384 -4.44389
upperback -0.221661 -4.36753 2.12003
thorax 3.31749 -2.26153 4.30974
lowerneck -21.5656 -3.82856 -11.5942
upperneck 22.6659 -4.55954 11.3983
head 11.5073 -1.66108 5.46861
lclavicle 3.16031e-14 7.44715e-15 0
lhumerus -13.6667 -19.6788 87.3735
lradius 26.9252 0 0
lwrist 3.56774 0 0
lhand -15.4818 -24.5583 0
lfingers 7.12502 0 0
lthumb 10.6992 5.13477 0
rclavicle 3.16031e-14 7.44715e-15 0
rhumerus -47.2608 7.46729 -82.8576
rradius 40.2059 0 0
rwrist -22.5503 0 0
rhand -29.6042 -21.6252 0
rfingers 7.12502 0 0
rthumb -2.93515 -51.5845 0
292
root 10.0172 16.8162 4.08304 5.4442 1.47105 3.17229
lfemur -2.62559 5.13611 -28.398
ltibia 19.394 0 0
lfoot -17.155 3.90402 0
ltoes -5.9078 0 0
rfemur -36.3901 -0.240727 16.1882
rtibia 46.6425 0 0
rfoot -19.5118 -11.1462 0
rtoes -23.516 0 0
lowerback -5.50208 -3.46656 -4.4595
upperback -0.252196 -4.40742 2.12502
thorax 3.32848 -2.28111 4.31591
lowerneck -21.493 -3.85547 -11.6353
upperneck 22.6145 -4.60322 11.4531
head 11.4838 -1.68002 5.48745
lclavicle 3.17013e-14 6.74898e-15 0
lhumerus -13.9987 -20.1286 87.7544
lradius 27.2357 0 0
lwrist 3.68238 0 0
lhand -15.2563 -24.5685 0
lfingers 7.12502 0 0
lthumb 10.9165 5.10878 0
rclavicle 3.17013e-14 6.74898e-15 0
rhumerus -47.3353 7.42885 -82.8548
rradius 39.9348 0 0
rwrist -22.352 0 0
rhand -29.568 -21.712 0
rfingers 7.12502 0 0
rthumb -2.90018 -51.6716 0
293
root 10.0068 16.8034 4.24747 5.48173 1.68219 3.16053
lfemur -1.8149 5.15154 -28.1299
ltibia 18.8699 0 0
lfoot -16.6368 3.69085 0
ltoes -6.16337 0 0
rfemur -36.5622 -0.199996 16.2029
rtibia 46.4731 0 0
rfoot -19.1354 -10.826 0
rtoes -23.3986 0 0
lowerback -5.5671 -3.49927 -4.47511
upperback -0.282731 -4.44731 2.13001
thorax 3.33946 -2.3007 4.32207
lowerneck -21.4203 -3.88238 -11.6764
upperneck 22.563 -4.6469 11.5079
head 11.4603 -1.69896 5.50628
lclavicle 3.17995e-14 6.05081e-15 0
lhumerus -14.3307 -20.5784 88.1353
lradius 27.5462 0 0
lwrist 3.79702 0 0
lhand -15.0307 -24.5788 0
lfingers 7.12502 0 0
lthumb 11.1338 5.08279 0
rclavicle 3.17995e-14 6.05081e-15 0
rhumerus -47.4098 7.39041 -82.8521
rradius 39.6638 0 0
rwrist -22.1536 0 0
rhand -29.5318 -21.7988 0
rfingers 7.12502 0 0
rthumb -2.86521 -51.7588 0
294
root 9.99627 16.7906 4.4119 5.51926 1.89333 3.14877
lfemur -1.00421 5.16698 -27.8619
ltibia 18.3457 0 0
lfoot -16.1185 3.47769 0
ltoes -6.41894 0 0
rfemur -36.7342 -0.159266 16.2176
rtibia 46.3038 0 0
rfoot -18.7589 -10.5058 0
rtoes -23.2812 0 0
lowerback -5.63212 -3.53199 -4.49071
upperback -0.313266 -4.48721 2.135
thorax 3.35045 -2.32029 4.32824
lowerneck -21.3477 -3.90929 -11.7175
upperneck 22.5116 -4.69058 11.5627
head 11.4368 -1.7179 5.52511
lclavicle 3.18977e-14 5.35264e-15 0
lhumerus -14.6627 -21.0282 88.5162
lradius 27.8567 0 0
lwrist 3.91167 0 0
lhand -14.8052 -24.5891 0
lfingers 7.12502 0 0
lthumb 11.3511 5.0568 0
rclavicle 3.18977e-14 5.35264e-15 0
rhumerus -47.4844 7.35197 -82.8493
rradius 39.3928 0 0
rwrist -21.9552 0 0
rhand -29.4955 -21.8856 0
rfingers 7.12502 0 0
rthumb -2.83024 -51.846 0
295
root 9.98578 16.7777 4.57634 5.55679 2.10446 3.13701
lfemur -0.193527 5.18241 -27.5938
ltibia 17.8216 0 0
lfoot -15.6003 3.26452 0
ltoes -6.6745 0 0
rfemur -36.9063 -0.118535 16.2323
rtibia 46.1344 0 0
rfoot -18.3825 -10.1856 0
rtoes -23.1638 0 0
lowerback -5.69714 -3.5647 -4.50632
upperback -0.343802 -4.5271 2.13999
thorax 3.36143 -2.33987 4.3344
lowerneck -21.2751 -3.9362 -11.7585
upperneck 22.4601 -4.73426 11.6175
head 11.4133 -1.73684 5.54394
lclavicle 3.19959e-14 4.65447e-15 0
lhumerus -14.9946 -21.478 88.8972
lradius 28.1672 0 0
lwrist 4.02631 0 0
lhand -14.5796 -24.5994 0
lfingers 7.12502 0 0
lthumb 11.5684 5.03082 0
rclavicle 3.19959e-14 4.65447e-15 0
rhumerus -47.5589 7.31353 -82.8466
rradius 39.1217 0 0
rwrist -21.7569 0 0
rhand -29.4593 -21.9724 0
rfingers 7.12502 0 0
rthumb -2.79527 -51.9331 0
296
root 9.97529 16.7649 4.74077 5.59432 2.3156 3.12525
lfemur 0.617159 5.19785 -27.3258
ltibia 17.2974 0 0
lfoot -15.0821 3.05136 0
ltoes -6.93007 0 0
rfemur -37.0783 -0.0778041 16.247
rtibia 45.965 0 0
rfoot -18.0061 -9.86542 0
rtoes -23.0464 0 0
lowerback -5.76216 -3.59742 -4.52193
upperback -0.374337 -4.56699 2.14498
thorax 3.37242 -2.35946 4.34057
lowerneck -21.2025 -3.96311 -11.7996
upperneck 22.4087 -4.77794 11.6723
head 11.3898 -1.75578 5.56277
lclavicle 3.2094e-14 3.9563e-15 0
lhumerus -15.3266 -21.9277 89.2781
lradius 28.4776 0 0
lwrist 4.14095 0 0
lhand -14.3541 -24.6097 0
lfingers 7.12502 0 0
lthumb 11.7857 5.00483 0
rclavicle 3.2094e-14 3.9563e-15 0
rhumerus -47.6334 7.27509 -82.8438
rradius 38.8507 0 0
rwrist -21.5585 0 0
rhand -29.4231 -22.0591 0
rfingers 7.12502 0 0
rthumb -2.7603 -52.0203 0
297
root 9.9648 16.7521 4.90521 5.63185 2.52674 3.11349
lfemur 1.42784 5.21328 -27.0577
ltibia 16.7732 0 0
lfoot -14.5639 2.8382 0
ltoes -7.18564 0 0
rfemur -37.2503 -0.0370734 16.2617
rtibia 45.7957 0 0
rfoot -17.6296 -9.54524 0
rtoes -22.929 0 0
lowerback -5.82718 -3.63013 -4.53754
upperback -0.404872 -4.60689 2.14997
thorax 3.3834 -2.37904 4.34674
lowerneck -21.1299 -3.99002 -11.8407
upperneck 22.3573 -4.82163 11.7271
head 11.3664 -1.77471 5.5816
lclavicle 3.21922e-14 3.25813e-15 0
lhumerus -15.6586 -22.3775 89.659
lradius 28.7881 0 0
lwrist 4.25559 0 0
lhand -14.1286 -24.62 0
lfingers 7.12502 0 0
lthumb 12.0029 4.97884 0
rclavicle 3.21922e-14 3.25813e-15 0
rhumerus -47.7079 7.23665 -82.841
rradius 38.5796 0 0
rwrist -21.3602 0 0
rhand -29.3869 -22.1459 0
rfingers 7.12502 0 0
rthumb -2.72534 -52.1074 0
298
root 9.95431 16.7393 5.06964 5.66938 2.73787 3.10173
lfemur 2.23853 5.22872 -26.7897
ltibia 16.2491 0 0
lfoot -14.0456 2.62503 0
ltoes -7.44121 0 0
rfemur -37.4224 0.00365732 16.2764
rtibia 45.6263 0 0
rfoot -17.2532 -9.22505 0
rtoes -22.8116 0 0
lowerback -5.8922 -3.66284 -4.55314
upperback -0.435407 -4.64678 2.15496
thorax 3.39438 -2.39863 4.3529
lowerneck -21.0573 -4.01693 -11.8818
upperneck 22.3058 -4.86531 11.7819
head 11.3429 -1.79365 5.60043
lclavicle 3.22904e-14 2.55996e-15 0
lhumerus -15.9906 -22.8273 90.0399
lradius 29.0986 0 0
lwrist 4.37023 0 0
lhand -13.903 -24.6303 0
lfingers 7.12502 0 0
lthumb 12.2202 4.95285 0
rclavicle 3.22904e-14 2.55996e-15 0
rhumerus -47.7825 7.19821 -82.8383
rradius 38.3086 0 0
rwrist -21.1618 0 0
rhand -29.3507 -22.2327 0
rfingers 7.12502 0 0
rthumb -2.69037 -52.1946 0
299
root 9.94382 16.7264 5.23408 5.7069 2.94901 3.08997
lfemur 3.04922 5.24415 -26.5216
ltibia 15.7249 0 0
lfoot -13.5274 2.41187 0
ltoes -7.69677 0 0
rfemur -37.5944 0.044388 16.2912
rtibia 45.4569 0 0
rfoot -16.8767 -8.90487 0
rtoes -22.6942 0 0
lowerback -5.95722 -3.69556 -4.56875
upperback -0.465943 -4.68667 2.15995
thorax 3.40537 -2.41821 4.35907
lowerneck -20.9847 -4.04383 -11.9228
upperneck 22.2544 -4.90899 11.8367
head 11.3194 -1.81259 5.61927
lclavicle 3.23886e-14 1.86179e-15 0
lhumerus -16.3225 -23.2771 90.4208
lradius 29.4091 0 0
lwrist 4.48487 0 0
lhand -13.6775 -24.6405 0
lfingers 7.12502 0 0
lthumb 12.4375 4.92686 0
rclavicle 3.23886e-14 1.86179e-15 0
rhumerus -47.857 7.15977 -82.8355
rradius 38.0376 0 0
rwrist -20.9635 0 0
rhand -29.3145 -22.3195 0
rfingers 7.12502 0 0
rthumb -2.6554 -52.2818 0
300
root 9.93333 16.7136 5.39851 5.74443 3.16015 3.07821
lfemur 3.8599 5.25959 -26.2536
ltibia 15.2007 0 0
lfoot -13.0092 2.19871 0
ltoes -7.95234 0 0
rfemur -37.7664 0.0851188 16.3059
rtibia 45.2876 0 0
rfoot -16.5003 -8.58468 0
rtoes -22.5768 0 0
lowerback -6.02224 -3.72827 -4.58436
upperback -0.496478 -4.72657 2.16494
thorax 3.41635 -2.4378 4.36524
lowerneck -20.9121 -4.07074 -11.9639
upperneck 22.203 -4.95267 11.8915
head 11.2959 -1.83153 5.6381
lclavicle 3.24868e-14 1.16362e-15 0
lhumerus -16.6545 -23.7269 90.8017
lradius 29.7196 0 0
lwrist 4.59951 0 0
lhand -13.452 -24.6508 0
lfingers 7.12502 0 0
lthumb 12.6548 4.90088 0
rclavicle 3.24868e-14 1.16362e-15 0
rhumerus -47.9315 7.12133 -82.8327
rradius 37.7665 0 0
rwrist -20.7651 0 0
rhand -29.2783 -22.4063 0
rfingers 7.12502 0 0
rthumb -2.62043 -52.3689 0
301
root 9.92284 16.7008 5.56294 5.78196 3.37128 3.06645
lfemur 4.67059 5.27502 -25.9855
ltibia 14.6766 0 0
lfoot -12.491 1.98554 0
ltoes -8.20791 0 0
rfemur -37.9385 0.12585 16.3206
rtibia 45.1182 0 0
rfoot -16.1239 -8.2645 0
rtoes -22.4594 0 0
lowerback -6.08726 -3.76099 -4.59997
upperback -0.527013 -4.76646 2.16993
thorax 3.42734 -2.45739 4.3714
lowerneck -20.8394 -4.09765 -12.005
upperneck 22.1515 -4.99635 11.9463
head 11.2724 -1.85047 5.65693
lclavicle 3.25849e-14 4.65453e-16 0
lhumerus -16.9865 -24.1766 91.1826
lradius 30.03 0 0
lwrist 4.71415 0 0
lhand -13.2264 -24.6611 0
lfingers 7.12502 0 0
lthumb 12.8721 4.87489 0
rclavicle 3.25849e-14 4.65453e-16 0
rhumerus -48.006 7.08289 -82.83
rradius 37.4955 0 0
rwrist -20.5667 0 0
rhand -29.2421 -22.493 0
rfingers 7.12502 0 0
rthumb -2.58546 -52.4561 0
302
root 9.91235 16.688 5.72738 5.81949 3.58242 3.05469
lfemur 5.48128 5.29045 -25.7175
ltibia 14.1524 0 0
lfoot -11.9727 1.77238 0
ltoes -8.46348 0 0
rfemur -38.1105 0.16658 16.3353
rtibia 44.9488 0 0
rfoot -15.7474 -7.94431 0
rtoes -22.342 0 0
lowerback -6.15228 -3.7937 -4.61557
upperback -0.557548 -4.80635 2.17492
thorax 3.43832 -2.47697 4.37757
lowerneck -20.7668 -4.12456 -12.0461
upperneck 22.1001 -5.04003 12.0011
head 11.2489 -1.86941 5.67576
lclavicle 3.26831e-14 -2.32717e-16 0
lhumerus -17.3185 -24.6264 91.5635
lradius 30.3405 0 0
lwrist 4.82879 0 0
lhand -13.0009 -24.6714 0
lfingers 7.12502 0 0
lthumb 13.0894 4.8489 0
rclavicle 3.26831e-14 -2.32717e-16 0
rhumerus -48.0806 7.04445 -82.8272
rradius 37.2245 0 0
rwrist -20.3684 0 0
rhand -29.2059 -22.5798 0
rfingers 7.12502 0 0
rthumb -2.55049 -52.5433 0
303
root 9.90186 16.6751 5.89181 5.85702 3.79356 3.04293
lfemur 6.29196 5.30589 -25.4494
ltibia 13.6282 0 0
lfoot -11.4545 1.55922 0
ltoes -8.71904 0 0
rfemur -38.2825 0.207311 16.35
rtibia 44.7794 0 0
rfoot -15.371 -7.62413 0
rtoes -22.2246 0 0
lowerback -6.2173 -3.82642 -4.63118
upperback -0.588084 -4.84624 2.17991
thorax 3.44931 -2.49656 4.38374
lowerneck -20.6942 -4.15147 -12.0871
upperneck 22.0487 -5.08372 12.0559
head 11.2255 -1.88834 5.69459
lclavicle 3.27813e-14 -9.30886e-16 0
lhumerus -17.6504 -25.0762 91.9444
lradius 30.651 0 0
lwrist 4.94343 0 0
lhand -12.7753 -24.6817 0
lfingers 7.12502 0 0
lthumb 13.3066 4.82291 0
rclavicle 3.27813e-14 -9.30886e-16 0
rhumerus -48.1551 7.00601 -82.8244
rradius 36.9534 0 0
rwrist -20.17 0 0
rhand -29.1697 -22.6666 0
rfingers 7.12502 0 0
rthumb -2.51553 -52.6304 0
